<svg viewBox="0 0 145 148" fill="none" xmlns="http://www.w3.org/2000/svg">
  <path fill-rule="evenodd" clip-rule="evenodd" d="M28.3901 147.146H116.397V118.756H28.3901V147.146Z" fill="#FFA4E0"/>
  <path fill-rule="evenodd" clip-rule="evenodd" d="M49.0261 15.0318L72.3941 32.9018L28.3901 66.5518V30.8118L49.0261 15.0318Z" fill="#FFA4E0"/>
  <path fill-rule="evenodd" clip-rule="evenodd" d="M116.397 118.756H144.788V88.2614L116.398 66.5514L116.397 118.756Z" fill="#FFA4E0"/>
  <path fill-rule="evenodd" clip-rule="evenodd" d="M116.397 147.146H133.827C139.879 147.146 144.788 142.239 144.788 136.185V118.756H116.397V147.146Z" fill="#431FAF"/>
  <path fill-rule="evenodd" clip-rule="evenodd" d="M95.761 15.0318L72.394 32.9018L116.398 66.5518V30.8118L95.761 15.0318Z" fill="#7FF5FF"/>
  <path fill-rule="evenodd" clip-rule="evenodd" d="M49.0259 15.0318L72.3939 32.9018L95.7609 15.0318L79.0509 2.25382C77.0869 0.751817 74.7399 -0.000183105 72.3939 -0.000183105C70.0469 -0.000183105 67.7009 0.751817 65.7359 2.25382L49.0259 15.0318Z" fill="#431FAF"/>
  <path fill-rule="evenodd" clip-rule="evenodd" d="M144.496 55.4292C143.921 52.9872 142.517 50.7872 140.484 49.2322L116.397 30.8122V66.5512L144.787 88.2612V57.9392C144.787 57.0852 144.686 56.2432 144.496 55.4292Z" fill="#431FAF"/>
  <path fill-rule="evenodd" clip-rule="evenodd" d="M28.39 66.5513L-0.000976562 88.2613V118.756H28.39V66.5513Z" fill="#7FF5FF"/>
  <path fill-rule="evenodd" clip-rule="evenodd" d="M-0.000488281 118.756V136.185C-0.000488281 137.698 0.306512 139.14 0.860512 140.451C2.38651 144.058 5.78651 146.678 9.84051 147.089C10.2085 147.126 10.5825 147.146 10.9605 147.146H28.3905V118.756H-0.000488281Z" fill="#431FAF"/>
  <path fill-rule="evenodd" clip-rule="evenodd" d="M28.39 30.812L4.30302 49.232C2.26902 50.788 0.866023 52.987 0.290023 55.429C0.0990234 56.244 -0.000976562 57.085 -0.000976562 57.939V88.261L28.39 66.551V30.812Z" fill="#431FAF"/>
</svg>
